<svg width="168" height="168" viewBox="0 0 168 168" fill="none" xmlns="http://www.w3.org/2000/svg">
<g clip-path="url(#clip0_7_139)">
<path d="M77.1094 0.13118C76.7594 0.174927 75.1844 0.371811 73.6094 0.56868C47.425 3.71867 23.9313 19.5124 10.7406 42.8093C-0.721872 63.0874 -3.08437 88.3093 4.41875 110.578C13.9125 138.797 38.0625 160.169 67.0469 166.031C94.5219 171.587 122.413 163.494 142.275 144.156C145.622 140.897 148.553 137.616 151.003 134.356C169.903 109.331 173.25 75.9281 159.688 47.5124C153.584 34.7374 144.003 23.4937 132.016 15.0062C122.566 8.31242 111.059 3.49992 99.4219 1.3343C94.0188 0.328049 92.1813 0.174927 84.875 0.109299C80.9594 0.0655518 77.4813 0.0874329 77.1094 0.13118ZM90.8469 17.9374C103.666 19.1624 115.653 24.0406 126.219 32.3531C128.844 34.4093 134.356 39.9218 136.544 42.6562C144.922 53.2218 149.778 65.4281 150.959 78.9687C151.266 82.5781 151.091 89.6656 150.609 93.1874C148.466 108.719 141.05 122.937 129.588 133.459C109.047 152.337 79.1438 156.45 54.25 143.806C47.6219 140.459 42.0219 136.303 36.6188 130.791C23.8875 117.731 17.1063 100.1 17.8063 81.9218C18.375 67.3531 23.2969 54.1406 32.5719 42.4374C34.7594 39.6593 40.2719 34.2124 43.0938 32.0249C51.3844 25.6156 59.9813 21.5031 69.8031 19.2718C72.4719 18.6812 76.3875 18.0468 78.6406 17.8718C80.7625 17.6968 88.7031 17.7406 90.8469 17.9374Z" fill="black"/>
<path d="M79.9531 24.9373C69.7156 25.7904 60.0031 29.1373 51.625 34.6936C47.9719 37.1217 48.1906 36.8154 47.5781 40.4248C47.2938 42.1311 46.9875 44.2092 46.9 45.0186C46.7688 46.4186 46.7906 46.5498 47.3813 47.2279L47.9938 47.9717L52.8281 47.8404C55.475 47.7748 60.7031 47.5342 64.4219 47.3154C72.6469 46.8561 94.5875 46.7686 103.797 47.2061C107.056 47.3373 112.088 47.5779 115.019 47.7092L120.334 47.9717L121.013 47.3373C122.434 45.9811 122.522 45.3248 121.844 40.6217C121.341 37.1217 121.713 37.6248 117.688 34.9123C106.597 27.4311 93.0563 23.8654 79.9531 24.9373Z" fill="black"/>
<path d="M38.9375 45.9812C37.1875 48.0812 35 51.1437 33.4906 53.6156C31.9375 56.1968 31.9156 56.2625 32.2656 56.8093C32.8344 57.6843 33.8625 57.9687 36.2469 57.9468C37.4281 57.9468 38.5656 57.8593 38.7844 57.7937C39.1125 57.6406 39.2 57.2687 39.2875 55.125C39.3969 52.2156 39.7906 47.075 39.9656 45.8718C40.0313 45.4343 39.9875 45.0625 39.9 45.0625C39.7906 45.0625 39.3531 45.4781 38.9375 45.9812Z" fill="black"/>
<path d="M129.347 45.9374C129.522 46.9436 129.894 51.9749 130.025 55.1249C130.113 57.2686 130.2 57.6405 130.528 57.7936C130.747 57.8592 131.884 57.9467 133.066 57.9467C135.275 57.9686 136.347 57.7061 136.938 57.0061C137.2 56.6561 137.178 56.4811 136.609 55.4967C134.925 52.4342 130.878 46.6374 129.697 45.6092L129.216 45.1717L129.347 45.9374Z" fill="black"/>
<path d="M46.7906 57.3781C45.1719 58.45 45.2813 56.5031 45.2813 84.3281C45.2813 112.153 45.1719 110.206 46.7906 111.278L47.5344 111.781H84.9188C125.541 111.781 122.828 111.869 124.031 110.578L124.578 109.987V84.3281V58.6687L124.031 58.0781C122.828 56.7875 125.541 56.875 84.9188 56.875H47.5344L46.7906 57.3781Z" fill="black"/>
<path d="M28.9625 66.2594C27.475 67.1781 27.1688 68.0312 26.1406 74.2438C25.5719 77.5906 25.5719 77.7437 25.9219 78.6625L26.2938 79.625H31.7188C37.0563 79.625 37.1656 79.625 37.7344 79.1219L38.3031 78.6406L38.3469 72.9094C38.3906 67.3969 38.3688 67.1781 37.9313 66.5656L37.4719 65.9531L33.5563 65.8875C30.0344 65.8438 29.575 65.8875 28.9625 66.2594Z" fill="black"/>
<path d="M131.863 66.2156C131.075 67.1125 131.031 67.55 131.031 72.9969V78.4438L131.644 79.0344L132.256 79.625H137.659H143.062L143.412 79.0563C143.762 78.5312 143.762 78.3344 143.412 75.8406C143.062 73.2594 142.034 68.5563 141.553 67.3313C141.422 66.9812 141.006 66.5219 140.613 66.2812C139.956 65.8875 139.497 65.8438 136.041 65.8438C132.65 65.8438 132.147 65.8875 131.863 66.2156Z" fill="black"/>
<path d="M26.0094 88.9437C25.5719 89.9062 25.5719 89.9937 25.9219 92.2687C26.6875 97.2343 27.2781 99.7281 27.8688 100.494C28.8531 101.806 29.4875 101.959 33.7094 101.894L37.4719 101.828L37.9313 101.216C38.3688 100.625 38.3906 100.341 38.3906 94.8937V89.2062L37.6688 88.5718L36.9469 87.9374H31.6969H26.4469L26.0094 88.9437Z" fill="black"/>
<path d="M131.797 88.6156L131.031 89.2937V94.8281C131.031 100.209 131.053 100.362 131.534 101.084L132.038 101.828H136.062C139.891 101.828 140.153 101.806 140.787 101.347C141.772 100.647 142.122 99.7281 142.866 96.075C143.719 91.7 143.894 89.5562 143.412 88.6375L143.041 87.9375H137.812H132.584L131.797 88.6156Z" fill="black"/>
<path d="M32.7687 110.425C31.5656 111.519 31.8719 112.766 34.3 116.266C36.2031 119.044 38.6094 121.909 39.3531 122.347C40.0312 122.741 40.0312 122.741 40.0312 122.259C40.0312 121.975 39.9219 120.925 39.8125 119.897C39.6812 118.869 39.5062 116.2 39.4187 113.969L39.2656 109.922L36.3781 109.856L33.4906 109.791L32.7687 110.425Z" fill="black"/>
<path d="M130.266 110.075C130.222 110.228 130.134 111.628 130.069 113.203C129.981 114.756 129.828 117.513 129.697 119.284C129.566 121.056 129.5 122.588 129.588 122.653C130.025 123.113 134.553 117.031 136.631 113.159C137.441 111.65 137.463 111.563 137.156 110.972C136.959 110.644 136.566 110.25 136.281 110.097C135.516 109.703 130.397 109.703 130.266 110.075Z" fill="black"/>
<path d="M114.734 120.094C109.638 120.378 102.397 120.728 96.0312 120.991C89.9281 121.253 74.9875 121.144 66.6094 120.772C64.0938 120.662 58.975 120.444 55.2781 120.291L48.5406 120.006L47.7312 120.816L46.9219 121.647L46.9437 124.206C46.9656 125.606 47.1406 127.75 47.3375 128.953C47.7531 131.512 47.6656 131.403 51.5594 134.006C57.7281 138.119 65.4281 141.334 72.4937 142.712C77.3281 143.675 79.0781 143.828 84.6562 143.828C89.1406 143.806 90.5187 143.741 93.1875 143.303C100.472 142.166 107.231 139.869 113.203 136.544C115.412 135.319 120.422 132.037 120.641 131.666C120.903 131.272 122.281 121.997 122.15 121.516C122.084 121.231 121.8 120.794 121.516 120.531C120.859 119.919 119.481 119.831 114.734 120.094Z" fill="black"/>
</g>
<defs>
<clipPath id="clip0_7_139">
<rect width="168" height="168" fill="white"/>
</clipPath>
</defs>
</svg>
