<svg width="168" height="168" viewBox="0 0 168 168" fill="none" xmlns="http://www.w3.org/2000/svg">
<g clip-path="url(#clip0_7_153)">
<path d="M77.7656 0.524979C56.8969 2.39529 39.0797 10.5656 24.6094 24.9375C11.6156 37.8 3.51094 54.0422 0.787506 72.6797C-0.0328064 78.1594 -0.0328064 90.2016 0.787506 95.4844C2.19844 104.902 4.56094 112.514 8.53126 120.619C16.7672 137.55 30.0891 150.839 47.0859 159.173C88.725 179.55 139.158 162.258 159.469 120.619C163.439 112.514 165.802 104.902 167.213 95.4844C168.033 90.2016 168.033 78.1594 167.213 72.6797C164.489 54.0422 156.384 37.8 143.391 24.9375C130.266 11.9109 114.417 3.97029 95.8125 1.14842C92.4985 0.656235 80.8828 0.262482 77.7656 0.524979ZM90.0375 27.3984C99.9469 30.1219 107.067 39.3094 107.067 49.3828C107.034 52.7625 106.509 54.9937 104.672 58.8984C102.342 63.9844 95.3531 74.0578 92.1703 76.9453C91.4156 77.6015 89.9719 78.5531 88.9547 79.0453C87.3797 79.7672 86.6906 79.8984 84 79.8984C78.8813 79.8984 76.6172 78.4875 71.8594 72.3187C66.7734 65.7562 62.9016 58.9641 61.5234 54.3047C60.7031 51.5156 60.7688 47.1187 61.6547 43.8703C64.0172 35.2406 70.5141 29.039 79.275 27.1031C82.0313 26.4797 87.1828 26.6109 90.0375 27.3984ZM51.1875 75.8297C54.6656 76.7812 58.5375 78.75 63.4922 82.064C74.2875 89.3156 76.7813 92.3672 76.7813 98.3719C76.7813 102.834 75.1734 105.591 70.3828 109.397C63.3609 114.909 56.1422 119.175 51.3516 120.619C48.2344 121.57 42.9188 121.406 39.5391 120.291C33.075 118.092 28.4484 113.958 25.5938 107.789C23.625 103.556 23.0016 99.6844 23.5922 95.3531C24.3797 89.8406 26.3156 85.9359 30.3516 81.8344C32.5172 79.6687 33.5672 78.9141 36.0938 77.6344C41.2453 75.1078 46.3641 74.4844 51.1875 75.8297ZM126.492 75.6328C127.772 75.8953 130.2 76.814 131.906 77.6344C137.091 80.1937 141.356 85.0172 143.259 90.4969C145.327 96.4359 145.031 102.145 142.406 107.789C139.552 113.958 134.925 118.092 128.461 120.291C126.295 121.012 125.213 121.177 122.227 121.209C118.059 121.242 116.288 120.816 111.727 118.617C106.181 115.959 95.2875 108.15 93.45 105.492C90.4313 101.128 90.4313 95.025 93.5156 90.9891C94.9922 89.0203 98.9953 85.7719 104.508 82.0969C113.827 75.8297 119.503 74.1562 126.492 75.6328Z" fill="black"/>
</g>
<defs>
<clipPath id="clip0_7_153">
<rect width="168" height="168" fill="white"/>
</clipPath>
</defs>
</svg>
