<svg width="168" height="168" viewBox="0 0 168 168" fill="none" xmlns="http://www.w3.org/2000/svg">
<path fill-rule="evenodd" clip-rule="evenodd" d="M35 7C27.5739 7 20.452 9.94999 15.201 15.201C9.94999 20.452 7 27.5739 7 35V133C7 140.426 9.94999 147.548 15.201 152.799C20.452 158.05 27.5739 161 35 161H133C140.426 161 147.548 158.05 152.799 152.799C158.05 147.548 161 140.426 161 133V35C161 27.5739 158.05 20.452 152.799 15.201C147.548 9.94999 140.426 7 133 7H35ZM115.136 60.704C116.993 60.704 118.773 59.9665 120.086 58.6537C121.399 57.341 122.136 55.5605 122.136 53.704C122.136 51.8475 121.399 50.067 120.086 48.7543C118.773 47.4415 116.993 46.704 115.136 46.704C113.279 46.704 111.499 47.4415 110.186 48.7543C108.873 50.067 108.136 51.8475 108.136 53.704C108.136 55.5605 108.873 57.341 110.186 58.6537C111.499 59.9665 113.279 60.704 115.136 60.704ZM122.136 118.804V68.243H108.136V118.804H122.136ZM34.132 118.804L56.49 54.908V50.288H74.347L99.085 118.804H83.741L77.917 102.795H53.711L48.286 118.804H34.132ZM57.547 89.173H73.948L65.751 62.454L57.547 89.173Z" fill="black"/>
</svg>
