<svg width="168" height="168" viewBox="0 0 168 168" fill="none" xmlns="http://www.w3.org/2000/svg">
<path fill-rule="evenodd" clip-rule="evenodd" d="M35 7C27.5739 7 20.452 9.94999 15.201 15.201C9.94999 20.452 7 27.5739 7 35V133C7 140.426 9.94999 147.548 15.201 152.799C20.452 158.05 27.5739 161 35 161H133C140.426 161 147.548 158.05 152.799 152.799C158.05 147.548 161 140.426 161 133V35C161 27.5739 158.05 20.452 152.799 15.201C147.548 9.94999 140.426 7 133 7H35ZM49 45.5H42V115.5H56V94.5H66.5C69.7174 94.5 72.9033 93.8663 75.8757 92.635C78.8482 91.4038 81.5491 89.5992 83.8241 87.3241C86.0992 85.0491 87.9038 82.3482 89.135 79.3757C90.3663 76.4033 91 73.2174 91 70C91 66.7826 90.3663 63.5967 89.135 60.6243C87.9038 57.6518 86.0992 54.9509 83.8241 52.6759C81.5491 50.4008 78.8482 48.5962 75.8757 47.365C72.9033 46.1337 69.7174 45.5 66.5 45.5H49ZM66.5 80.5H56V59.5H66.5C69.2848 59.5 71.9555 60.6062 73.9246 62.5754C75.8938 64.5445 77 67.2152 77 70C77 72.7848 75.8938 75.4555 73.9246 77.4246C71.9555 79.3938 69.2848 80.5 66.5 80.5ZM101.5 63V115.5H115.5V85.75C116.798 83.4199 118.643 81.4404 120.876 79.982C123.515 78.288 127.323 77 133 77V63C126.168 63 120.351 64.372 115.5 66.92V63H101.5Z" fill="black"/>
</svg>
