<svg width="168" height="168" viewBox="0 0 168 168" fill="none" xmlns="http://www.w3.org/2000/svg">
<path fill-rule="evenodd" clip-rule="evenodd" d="M35 7C27.5739 7 20.452 9.94999 15.201 15.201C9.94999 20.452 7 27.5739 7 35V133C7 140.426 9.94999 147.548 15.201 152.799C20.452 158.05 27.5739 161 35 161H133C140.426 161 147.548 158.05 152.799 152.799C158.05 147.548 161 140.426 161 133V35C161 27.5739 158.05 20.452 152.799 15.201C147.548 9.94999 140.426 7 133 7H35ZM24.584 115.304L46.942 51.408V46.788H64.792L89.53 115.304H74.2L68.376 99.295H44.163L38.738 115.304H24.584ZM47.999 85.673H64.4L56.21 58.954L47.999 85.673ZM135.303 102.2V114.1C132.874 115.08 126.147 117.019 118.636 117.019C109.242 117.019 92.176 112.518 92.176 89.103C92.176 68.467 107.394 62.517 118.636 62.517C128.688 62.517 139.93 69.923 139.93 84.077V93.338H107.394C108.318 97.083 112.231 104.58 120.484 104.58C128.737 104.58 133.805 102.991 135.303 102.2ZM107.52 83.419H126.441C126.217 80.157 124.061 73.626 117.18 73.626C110.299 73.626 107.87 80.15 107.52 83.419Z" fill="black"/>
</svg>
